<svg width="321" height="117" viewBox="0 0 321 117" fill="none" xmlns="http://www.w3.org/2000/svg">
<rect width="321" height="117" fill="#1E1E1E"/>
<path d="M161.019 55.3381C165.109 55.3037 168.838 55.7913 172.204 56.8009C175.57 57.7495 178.33 59.1916 180.483 61.1272C184.358 64.5747 187.077 68.3678 188.638 72.5064C190.26 76.5834 191.097 81.8271 191.151 88.2374C191.163 89.5805 190.99 90.803 190.633 91.905C190.337 93.0065 189.83 94.415 189.111 96.1306C188.211 98.0309 187.675 99.5312 187.501 100.632C186.298 102.779 184.3 104.841 181.508 106.818C178.777 108.795 175.799 110.407 172.574 111.656C169.349 112.904 166.515 113.538 164.073 113.559C152.29 113.658 143.862 109.699 138.788 101.683C137.365 99.4355 136.246 97.0943 135.432 94.659C134.679 92.2231 134.292 89.8452 134.273 87.5253C134.22 81.2982 135.274 75.8859 137.433 71.2887C139.653 66.6298 142.736 63.0017 146.683 60.4042C149.052 58.98 151.515 57.7992 154.071 56.8619C156.688 55.863 159.004 55.3551 161.019 55.3381ZM143.799 87.7199C143.827 91.0166 144.582 93.7272 146.065 95.8517C147.61 97.9756 149.949 100.276 153.084 102.753C155.656 103.708 157.401 104.334 158.32 104.632C159.237 104.869 160.276 104.982 161.436 104.972C167.602 104.92 172.503 103.2 176.138 99.8114C179.772 96.4228 181.565 91.7981 181.516 85.9373C181.477 81.2974 180.927 77.6388 179.867 74.9613C178.806 72.2838 176.924 69.888 174.22 67.7738C172.806 66.6257 170.997 65.7861 168.795 65.2551C166.654 64.7237 164.331 64.4685 161.828 64.4895C158.043 64.5214 154.787 65.6783 152.058 67.9603C149.329 70.1812 147.247 73.0683 145.812 76.6215C144.438 80.1743 143.767 83.8737 143.799 87.7199ZM206.539 57.7942C208.855 64.4907 211.481 71.8563 214.418 79.8908C217.355 87.8643 220.038 94.7714 222.468 100.612C224.191 94.9196 226.576 88.092 229.623 80.1292C232.669 72.1054 235.508 64.877 238.141 58.4441C238.918 56.5449 240.253 55.5873 242.146 55.5714C243.916 55.5565 245.263 55.9115 246.185 56.6364C247.106 57.3003 247.574 58.4869 247.588 60.1963C247.594 60.8679 247.507 61.4486 247.328 61.9386C247.149 62.4285 246.88 63.0718 246.52 63.8686C244.659 67.6086 242.803 71.9286 240.951 76.8285C239.099 81.6674 236.831 87.8225 234.146 95.2938C234.266 94.9875 233.43 97.2841 231.64 102.184L228.684 110.084C228.326 111.064 227.722 111.833 226.872 112.389C226.082 112.884 225.169 113.136 224.131 113.145C223.093 113.154 221.931 112.919 220.645 112.442C219.419 111.902 218.529 111.36 217.975 110.816C215.866 106.865 213.162 101.148 209.863 93.6664C206.625 86.1839 203.82 79.2778 201.447 72.9481L200.041 69.205C199.104 66.6486 198.416 64.7007 197.977 63.3612C197.538 61.9606 197.315 60.8329 197.308 59.9782C197.298 58.7572 197.961 57.7748 199.298 57.0309C200.696 56.2864 202.036 55.9088 203.318 55.8981C203.989 55.8924 204.632 56.0396 205.245 56.3398C205.858 56.6399 206.289 57.1247 206.539 57.7942ZM261.117 113.017C259.285 113.032 257.999 112.494 257.257 111.401C256.576 110.308 256.227 108.754 256.21 106.739L256.201 94.8335L256.094 93.0027C255.74 87.2055 255.548 82.4143 255.516 78.6292L255.79 67.7286L255.836 62.2333C255.82 60.4018 255.869 58.9971 255.983 58.0193C256.097 57.0415 256.487 56.2445 257.154 55.6283C257.82 55.0121 258.886 54.6979 260.351 54.6856C262.183 54.6702 263.499 55.117 264.301 56.0261C265.101 56.8741 265.511 58.3665 265.529 60.5033L265.453 62.4271C265.25 67.3132 265.159 71.0078 265.18 73.5109C265.203 76.2582 265.292 79.4933 265.445 83.2164C265.598 86.8784 265.711 89.4722 265.785 90.998C266.146 97.5278 266.345 103.143 266.385 107.844C266.4 109.676 266.015 110.992 265.228 111.792C264.502 112.592 263.131 113 261.117 113.017ZM317.314 100.639C318.474 100.629 319.333 101.079 319.89 101.991C320.508 102.84 320.821 103.784 320.829 104.822C320.84 106.104 320.634 107.021 320.212 107.574C319.849 108.066 319.091 108.591 317.935 109.15C315.503 110.331 312.763 111.178 309.714 111.692C306.727 112.206 302.974 112.482 298.457 112.52C293.023 112.565 288.833 111.685 285.888 109.878C283.002 108.01 281.09 105.675 280.151 102.874C279.211 100.074 278.726 96.8114 278.695 93.0874L278.646 87.3181C278.613 83.3498 278.672 79.5334 278.824 75.8688C279.038 72.2037 279.46 67.9263 280.09 63.0367C280.493 60.1026 281.635 57.9866 283.517 56.6887C285.398 55.3296 287.468 54.6406 289.727 54.6216C292.169 54.6011 295.526 54.5118 299.799 54.3537L307.765 54.1951C311.001 54.1679 313.383 54.2394 314.91 54.4097C316.745 54.7606 318.092 55.1767 318.951 55.6579C319.87 56.0775 320.334 56.8368 320.343 57.9357C320.354 59.1567 319.936 60.3508 319.091 61.518C318.308 62.6846 317.091 63.2749 315.443 63.2887C313.55 63.3046 310.833 63.2054 307.29 62.991C303.747 62.7766 301.09 62.6768 299.32 62.6917C297.122 62.7102 295.352 62.8167 294.01 63.0111C292.302 63.1476 291.083 63.3716 290.353 63.683C289.623 63.9944 289.2 64.5169 289.084 65.2505C288.282 71.5459 287.894 76.1894 287.919 79.1808C289.264 79.3527 290.699 79.4322 292.225 79.4194C294.179 79.4029 297.443 79.1618 302.019 78.6959C305.374 78.3624 308.15 78.1864 310.348 78.1679C311.752 78.1561 312.792 78.3916 313.468 78.8743C314.143 79.3571 314.485 80.0258 314.492 80.8805C314.503 82.2236 314.176 83.2643 313.511 84.0026C312.846 84.7408 311.629 85.3005 309.862 85.6817C307.729 86.1271 304.954 86.4862 301.537 86.7592C298.181 87.0316 294.977 87.1807 291.924 87.2064C290.765 87.2161 289.329 87.1672 287.619 87.0594C287.653 91.0888 287.863 94.2619 288.248 96.5787C288.695 98.895 289.565 100.689 290.858 101.96C292.212 103.231 294.232 103.855 296.918 103.832C302.962 103.781 307.781 103.191 311.373 102.062C313.93 101.125 315.91 100.65 317.314 100.639Z" fill="white"/>
<path d="M27.4358 49.9041L20.476 116.719L1.35932 116.88L15.433 1.58308L61.0305 75.6346L105.532 0.825074L121.544 115.869L102.427 116.03L94.1876 49.3425L61.2876 106.19L27.4358 49.9041Z" fill="#0BD62B"/>
<path d="M236.316 48.3498C234.831 48.3623 233.444 48.215 232.154 47.9077C230.879 47.5853 229.854 47.2001 229.078 46.7522C228.316 46.2891 227.934 45.8682 227.931 45.4896C227.929 45.2776 228.01 44.9967 228.174 44.6469C228.353 44.2971 228.554 43.9849 228.779 43.7103C229.004 43.4358 229.185 43.298 229.321 43.2968C229.442 43.2958 229.708 43.4148 230.119 43.6536C231.062 44.1304 231.997 44.5239 232.924 44.8342C233.85 45.1444 234.972 45.294 236.29 45.2829C237.32 45.2743 238.234 45.0697 239.034 44.6692C239.833 44.2686 240.449 43.7106 240.883 42.9951C241.331 42.2643 241.551 41.4294 241.543 40.4904C241.535 39.4908 241.255 38.6677 240.704 38.0211C240.169 37.3591 239.513 36.8421 238.738 36.47C237.977 36.0826 236.867 35.6072 235.409 35.044C233.828 34.4514 232.574 33.9015 231.646 33.3944C230.733 32.8719 229.946 32.1137 229.287 31.1196C228.642 30.1254 228.313 28.8028 228.299 27.152C228.287 25.7132 228.647 24.4228 229.38 23.2806C230.112 22.1234 231.157 21.2209 232.515 20.5734C233.873 19.9258 235.438 19.5946 237.21 19.5797C238.012 19.5729 238.93 19.6788 239.961 19.8973C240.993 20.1007 241.874 20.3886 242.604 20.7611C243.349 21.1335 243.724 21.5469 243.728 22.0012C243.729 22.1981 243.648 22.4714 243.485 22.8212C243.336 23.1556 243.157 23.4601 242.947 23.7345C242.737 24.0089 242.572 24.1466 242.451 24.1476C242.314 24.1487 242.041 24.0374 241.63 23.8137C240.945 23.456 240.269 23.1739 239.601 22.9675C238.933 22.7459 238.121 22.6391 237.167 22.6471C235.607 22.6603 234.346 23.0722 233.384 23.8831C232.436 24.6938 231.968 25.8186 231.981 27.2574C231.988 28.1206 232.206 28.8307 232.635 29.3875C233.063 29.9443 233.605 30.3865 234.259 30.7142C234.913 31.042 235.825 31.4205 236.995 31.8499C237.071 31.8644 237.245 31.9235 237.519 32.0273C239.129 32.6347 240.445 33.2295 241.464 33.8116C242.499 34.3785 243.377 35.2041 244.098 36.2886C244.834 37.3729 245.209 38.7632 245.223 40.4595C245.237 42.0497 244.877 43.4386 244.145 44.6262C243.428 45.8136 242.391 46.7311 241.033 47.3787C239.69 48.0109 238.118 48.3347 236.316 48.3498ZM257.669 48.0112C257.109 48.0159 256.699 47.9512 256.441 47.817C256.182 47.6677 256.051 47.4416 256.049 47.1387L255.843 22.7626L248.074 22.828C247.786 22.8304 247.581 22.7337 247.458 22.5378C247.335 22.342 247.272 22.0396 247.269 21.6307L247.263 20.9718C247.26 20.5478 247.318 20.2444 247.437 20.0616C247.557 19.8637 247.76 19.7635 248.048 19.7611L266.995 19.6017C267.283 19.5993 267.488 19.696 267.611 19.8919C267.733 20.0726 267.796 20.375 267.8 20.7991L267.806 21.4579C267.809 21.8668 267.751 22.1702 267.631 22.3681C267.512 22.566 267.308 22.6662 267.021 22.6686L259.41 22.7326L259.615 47.1087C259.62 47.6994 259.077 47.9993 257.987 48.0085L257.669 48.0112ZM269.437 47.9122C268.831 47.9172 268.391 47.8679 268.118 47.7642C267.844 47.6453 267.706 47.4723 267.704 47.2451C267.704 47.1391 267.74 46.9571 267.813 46.699L277.154 20.0615C277.302 19.621 277.838 19.3969 278.762 19.3891L279.943 19.3792C280.867 19.3714 281.406 19.5865 281.561 20.0244L291.349 46.5237C291.426 46.6896 291.466 46.8635 291.467 47.0452C291.471 47.4996 290.905 47.7315 289.769 47.7411L289.428 47.744C288.489 47.7519 287.942 47.5444 287.787 47.1216L285.369 40.5079L273.51 40.6077L271.249 47.2608C271.116 47.686 270.58 47.9025 269.641 47.9104L269.437 47.9122ZM284.253 37.4502L279.926 25.4681C279.802 25.1359 279.7 24.7581 279.621 24.3347C279.542 23.9113 279.47 23.5029 279.406 23.1097L279.315 23.1104C279.142 24.1267 278.944 24.916 278.722 25.4782L274.598 37.5314L284.253 37.4502ZM297.516 47.6759C296.425 47.6851 295.878 47.3944 295.873 46.8037L295.652 20.5647C295.648 20.1407 295.744 19.837 295.94 19.6536C296.135 19.455 296.445 19.354 296.869 19.3504L303.661 19.2932C306.887 19.2661 309.315 19.8137 310.945 20.9359C312.59 22.058 313.423 23.861 313.444 26.3448C313.458 28.0259 313.061 29.4454 312.253 30.6033C311.46 31.746 310.332 32.6112 308.867 33.1991L308.869 33.3581C309.658 33.6241 310.307 34.1488 310.813 34.9321C311.334 35.7002 311.912 36.8464 312.546 38.3709L315.771 46.3182C315.849 46.5902 315.888 46.7792 315.889 46.8852C315.893 47.3093 315.327 47.5261 314.191 47.5356L313.782 47.5391C313.373 47.5425 313.016 47.4925 312.713 47.389C312.424 47.2703 312.241 47.1128 312.163 46.9165L309.03 39.0139C308.627 37.9873 308.159 37.1885 307.624 36.6175C307.089 36.0464 306.457 35.6503 305.728 35.4293C304.999 35.2082 304.082 35.1023 302.976 35.1116L299.342 35.1422L299.439 46.7737C299.444 47.3643 298.909 47.6642 297.834 47.6732L297.516 47.6759ZM304.632 32.0306C305.586 32.0226 306.455 31.7881 307.238 31.3271C308.037 30.866 308.661 30.2549 309.109 29.4938C309.572 28.7175 309.8 27.8977 309.792 27.0344C309.779 25.4441 309.284 24.2669 308.309 23.5027C307.333 22.7233 305.989 22.3408 304.278 22.3552L299.234 22.3976L299.316 32.0753L304.632 32.0306Z" fill="#696EF4"/>
</svg>
